# xmcd
#
# Track frame offsets: 
#        150
#        13443
#        27832
#        42284
#        56578
#        73430
#        89008
#        105129
#        122413
#        136698
#        150014
#        163406
#
# Disc length: 2386 seconds
#
# Revision: 0
# Processed by: cddbd v1.5.2PL0 Copyright (c) Steve Scherf et al.
# Submitted via: ExactAudioCopyFreeDBPlugin 1.0
#
DISCID=9809500c
DTITLE=Josh Kumra - Good Things Come To Those Who Don't Wait  [Deluxe]
DYEAR=2013
DGENRE=Blue, Pop, Jazz, Dance
TTITLE0=The Answer
TTITLE1=Reckless Love
TTITLE2=Keep On Walking
TTITLE3=Don't Go
TTITLE4=Find My Way Home
TTITLE5=Brave Face
TTITLE6=Waiting For You
TTITLE7=Lost Again
TTITLE8=Be My Light
TTITLE9=I'm Not The One
TTITLE10=Where Do We Go From Here
TTITLE11=White and Black [feat. Maiday]
EXTD=
EXTT0=
EXTT1=
EXTT2=
EXTT3=
EXTT4=
EXTT5=
EXTT6=
EXTT7=
EXTT8=
EXTT9=
EXTT10=
EXTT11=
PLAYORDER=
